<svg width="200" height="60" viewBox="0 0 200 60" xmlns="http://www.w3.org/2000/svg">
  <defs>
    <linearGradient id="logo-grad" x1="0%" y1="0%" x2="100%" y2="100%">
      <stop offset="0%" style="stop-color:#1a7f4b;stop-opacity:1" />
      <stop offset="100%" style="stop-color:#145e37;stop-opacity:1" />
    </linearGradient>
  </defs>
  <!-- Icon: Globe/Africa inspired -->
  <circle cx="25" cy="30" r="22" fill="#e8f5ee" />
  <path d="M25 10C13.95 10 5 18.95 5 30C5 41.05 13.95 50 25 50C36.05 50 45 41.05 45 30C45 18.95 36.05 10 25 10ZM26.4 46.15V42.6H23.6V46.15C16.85 45.35 11.6 39.75 11.6 33C11.6 32.55 11.65 32.1 11.7 31.65H16.5V28.85H11.7C11.65 28.4 11.6 27.95 11.6 27.5C11.6 20.75 16.85 15.15 23.6 14.35V17.9H26.4V14.35C33.15 15.15 38.4 20.75 38.4 27.5C38.4 27.95 38.35 28.4 38.3 28.85H33.5V31.65H38.3C38.35 32.1 38.4 32.55 38.4 33C38.4 39.75 33.15 45.35 26.4 46.15Z" fill="#1a7f4b" />
  <path d="M25 22C20.58 22 17 25.58 17 30C17 34.42 20.58 38 25 38C29.42 38 33 34.42 33 30C33 25.58 29.42 22 25 22Z" fill="#e8a020" />

  <!-- Text -->
  <text x="60" y="32" font-family="Inter, sans-serif" font-weight="800" font-size="24" fill="#1a7f4b">CAIN</text>
  <text x="60" y="48" font-family="Inter, sans-serif" font-weight="600" font-size="8" letter-spacing="0.5" fill="#5a5a7a" text-transform="uppercase">Foundation</text>
</svg>
